<svg xmlns="http://www.w3.org/2000/svg" viewBox="0 0 60 60">
  <path d="M28.7 32c-.5.6-.8 1.4-.7 2.1 0 .8.2 1.5.7 2.1 1.2 1 2.9 1 4 0 .5-.6.8-1.3.7-2.1.1-.8-.2-1.6-.7-2.1-1.2-.9-2.9-.9-4 0zm2-3.5c.7 0 1.3-.2 1.8-.6.4-.4.6-1 .6-1.6 0-.6-.2-1.3-.6-1.7-.5-.4-1.1-.7-1.8-.6-.6 0-1.3.2-1.8.6-.4.5-.7 1.1-.6 1.7 0 .6.2 1.2.6 1.6.5.4 1.1.7 1.8.6z"/>
  <path d="M30 0C13.4 0 0 13.4 0 30s13.4 30 30 30 30-13.4 30-30S46.6 0 30 0zm-7.7 39.5h-3.8V26.8H14v-2.5c.8 0 1.7-.1 2.5-.2.7-.1 1.3-.5 1.8-1 .3-.4.6-.8.7-1.3.1-.2.1-.5.1-.7h3.1v18.4zm13.2-1.1c-1.4 1.2-3.2 1.7-5 1.6-1.8.1-3.5-.5-4.8-1.6-1.1-1-1.7-2.5-1.6-4 0-1 .2-2 .7-2.8.5-.8 1.2-1.5 2.1-1.9-.8-.4-1.4-1.1-1.8-1.9-.3-.6-.4-1.3-.4-1.9 0-1.3.6-2.6 1.6-3.4 1.2-1 2.8-1.5 4.4-1.4 1.6-.1 3.2.4 4.4 1.4 1 .9 1.6 2.1 1.6 3.4 0 .7-.2 1.3-.4 1.9-.4.8-1 1.4-1.8 1.8.9.5 1.6 1.2 2.1 2 .5.9.7 1.8.7 2.8 0 1.5-.7 3-1.8 4zM48 27.5h-3.2v3.2h-2.1v-3.2h-3.2v-2h3.3v-3.2h2.1v3.2H48v2z"/>
</svg>
