<svg xmlns="http://www.w3.org/2000/svg" viewBox="0 0 60 60">
  <path d="M30 0C13.4 0 0 13.4 0 30s13.4 30 30 30 30-13.4 30-30S46.6 0 30 0zm6.7 25.5c0-1.2 1-2.2 2.2-2.1 1.2 0 2.2 1 2.1 2.2 0 1.2-1 2.2-2.2 2.1-1.1 0-2.1-.9-2.1-2.2 0 .1 0 .1 0 0zm-17.4.1c0-1.2 1-2.2 2.2-2.1 1.2 0 2.2 1 2.1 2.2 0 1.2-1 2.2-2.2 2.1-1.2 0-2.1-1-2.1-2.2zm11.6 19.7h-1.6c-7 0-12.7-5.5-13.1-12.5h5.3c3.3 0 6.1-2.2 6.9-5.4l.2-1c.1-.6.6-1 1.1-1.1.8-.2 1.7.3 1.9 1.1l.2 1c.8 3.2 3.6 5.4 6.9 5.4H44c-.3 7-6.1 12.5-13.1 12.5z"/>
  <path d="M30.1 35c-1.2 0-2.2 1-2.1 2.2 0 1.2 1 2.2 2.2 2.1 1.2 0 2.2-1 2.1-2.2 0-1.2-1-2.1-2.2-2.1z"/>
</svg>
