<svg xmlns="http://www.w3.org/2000/svg" viewBox="0 0 60 60">
  <path d="M26.1 29H22c-.7 0-1.2.5-1.2 1.2v4.1c0 .7.5 1.2 1.2 1.2h4.1c.7 0 1.2-.5 1.2-1.2v-4.1c0-.7-.5-1.2-1.2-1.2zm1.2 9.8c0-.6-.5-1.1-1.1-1.1h-4.3c-.6 0-1.1.5-1.1 1.1v4.3c0 .6.5 1.1 1.1 1.1h4.3c.6 0 1.1-.5 1.1-1.1v-4.3zm7.4-1.1h-4.1c-.7 0-1.2.5-1.2 1.2V43c0 .7.5 1.2 1.2 1.2h4.1c.7 0 1.2-.5 1.2-1.2v-4.1c0-.7-.5-1.2-1.2-1.2z"/>
  <path d="M30 0C13.4 0 0 13.4 0 30s13.4 30 30 30 30-13.4 30-30S46.6 0 30 0zm10.8 43.9c0 1.6-1.3 2.9-2.9 2.9H18.8c-1.6 0-2.9-1.3-2.9-2.9V28.5c0-1.6 1.3-2.9 2.9-2.9h.2v-6.3c0-5 4.1-9.1 9.1-9.2h.4c5 0 9.1 4.1 9.1 9.2v2.1H34v-2.1c0-3.1-2.5-5.5-5.5-5.5h-.4c-3.1 0-5.5 2.5-5.5 5.5v6.3h15.3c1.6 0 2.9 1.3 2.9 2.9v15.4z"/>
</svg>
