<svg xmlns="http://www.w3.org/2000/svg" width="128" height="28" viewBox="0 0 128 28">
    <path fill-rule="evenodd" d="M114.385 23.5v-6.814c0-.278-.005-.56-.014-.848-.008-.287-.012-.57-.012-.848-.02-.167-.037-.348-.055-.543-.018-.194-.046-.365-.082-.514-.035-.11-.09-.25-.162-.417-.073-.167-.186-.33-.34-.487-.155-.158-.345-.288-.572-.39-.228-.102-.513-.153-.858-.153-.11 0-.277.014-.504.042-.227.027-.468.134-.722.32-.436.314-.7.745-.79 1.292-.09.547-.127 1.293-.108 2.238v7.12h-4.085v-8.12c-.02-.464-.065-.92-.137-1.364-.074-.444-.31-.824-.713-1.14-.092-.073-.243-.157-.453-.25-.21-.092-.47-.14-.78-.14-.458 0-.878.122-1.262.363-.256.184-.452.407-.59.666-.136.26-.232.56-.287.904-.055.343-.087.74-.096 1.195-.01.455-.013.96-.013 1.516v6.37h-4.003V9.094h4.002v1.918c.145-.26.38-.593.7-1 .32-.408.83-.742 1.525-1.002.13-.036.344-.087.647-.152.302-.065.636-.097 1.003-.097.128 0 .325.015.59.043.266.028.555.088.867.18.31.093.632.242.962.445.33.205.632.483.907.835.148.204.263.39.345.556.082.165.142.295.18.388.09-.148.167-.27.23-.362.065-.092.15-.212.26-.36.13-.15.3-.32.52-.515.22-.194.488-.38.807-.556.32-.176.683-.324 1.093-.444.41-.12.88-.18 1.41-.18.254 0 .513.013.778.04.264.028.524.09.78.18.182.057.41.15.683.28.273.13.556.31.847.542.29.232.56.533.807.903.246.37.423.825.533 1.363.055.24.09.477.11.71.017.23.03.49.04.777.01.288.018.612.028.974.01.36.015.782.015 1.264V23.5h-4.03zm-19.928-2.19c-.183.262-.416.537-.7.827-.282.29-.634.56-1.054.813-.42.252-.92.457-1.494.617-.577.158-1.23.238-1.96.238-.622 0-1.24-.07-1.85-.21-.614-.14-1.18-.356-1.7-.645-.52-.29-.987-.66-1.4-1.107-.41-.45-.725-.99-.944-1.626-.11-.278-.192-.58-.247-.903-.056-.325-.097-.635-.124-.932l-.07-.765c-.017-.212-.026-.347-.026-.403V9.067h4.002v8.48c0 .075.004.228.013.46.01.232.05.468.124.71.145.518.4.92.766 1.21.366.286.813.43 1.343.43.475-.02.85-.102 1.123-.25.274-.15.475-.297.603-.446.165-.184.288-.402.37-.652.083-.25.142-.487.18-.71.035-.222.053-.416.053-.583V9.066h4.002v7.925c0 .816-.055 1.567-.165 2.252-.11.686-.393 1.375-.85 2.066zM78.915 23.5h-4.03V12.21H72.83V9.094h2.056V4.812h4.03v4.283h2.028v3.114h-2.03V23.5zM66.937 9.094h4.002V23.5h-4.003V9.094zm-2.398 3.448c-.157-.02-.354-.028-.59-.028h-.26c-.157 0-.307.01-.454.028-.09.018-.228.05-.41.097-.184.047-.38.12-.59.223-.21.102-.416.245-.617.43-.202.186-.367.427-.494.723-.092.205-.16.404-.206.598-.045.195-.078.413-.096.654-.018.24-.032.51-.04.806-.01.297-.015.65-.015 1.057-.02.28-.028.557-.028.835V23.5h-4.14V9.094h3.948v2.363c.055-.148.146-.357.274-.625.128-.27.32-.56.576-.876.146-.167.278-.297.398-.39.118-.092.223-.166.315-.222.182-.13.387-.232.616-.306.228-.075.442-.126.644-.154.2-.028.383-.046.548-.055.164-.01.274-.013.33-.013.31 0 .537.018.684.055l-.027 3.726c-.093-.018-.217-.037-.37-.055zM50.38 9.095h4.003V23.5H50.38V9.094zm-2.014 9.857c-.155.603-.397 1.224-.726 1.863-.33.64-.795 1.22-1.398 1.738l-.535.404c-.21.157-.466.3-.767.43-.302.13-.645.24-1.028.334-.384.094-.814.14-1.29.14-.108 0-.273-.004-.492-.014-.22-.01-.475-.04-.768-.097-.584-.13-1.04-.307-1.37-.53-.33-.222-.695-.546-1.096-.972v5.755h-4.03V9.095h3.92v1.696c.09-.11.192-.24.3-.388.11-.15.22-.27.33-.362.256-.26.658-.542 1.206-.848.548-.306 1.28-.46 2.193-.46.676 0 1.275.094 1.796.28.522.185.974.412 1.358.68.383.27.694.552.932.85.237.295.43.546.575.75.292.482.52.986.685 1.515.165.528.283 1.024.357 1.488.073.463.12.875.137 1.237.018.362.027.617.027.765 0 .204-.013.547-.04 1.03-.027.48-.12 1.023-.274 1.625zm-3.92-4.463c-.1-.5-.306-.965-.616-1.39-.476-.687-1.143-1.03-2.002-1.03-.164 0-.402.028-.712.083-.31.056-.63.214-.96.473-.42.316-.744.756-.973 1.32-.23.567-.333 1.368-.315 2.406 0 .594.06 1.205.178 1.835.12.63.416 1.16.89 1.586.257.24.535.412.837.514.3.102.626.153.973.153.073 0 .206-.01.398-.028.192-.018.397-.074.616-.167.512-.24.946-.704 1.302-1.39.357-.686.535-1.63.535-2.836 0-.52-.05-1.03-.15-1.53zm-11.608 6.806c-.147.28-.307.51-.48.697-.174.186-.334.344-.48.473-.438.372-.904.656-1.398.85-.493.195-.97.34-1.425.433-.457.092-.864.142-1.22.152-.356.01-.6.014-.726.014-.148 0-.436-.01-.865-.028-.43-.018-.923-.088-1.48-.21-.558-.12-1.13-.318-1.713-.596-.585-.278-1.106-.686-1.563-1.224-.11-.13-.266-.348-.467-.653-.2-.306-.365-.69-.493-1.154-.092-.333-.142-.63-.15-.89-.01-.26-.015-.453-.015-.583l3.838-.14c.055.316.1.562.137.738.037.176.1.338.192.486.184.354.482.64.896.863.413.223 1.015.334 1.806.334.717 0 1.236-.125 1.557-.375.323-.25.484-.58.484-.987 0-.074-.018-.18-.055-.32-.038-.14-.12-.283-.248-.43-.202-.205-.505-.358-.908-.46-.404-.102-.733-.19-.99-.264-.477-.11-.944-.222-1.402-.333-.46-.11-.926-.232-1.403-.36-.24-.075-.55-.182-.936-.32-.385-.14-.765-.358-1.14-.655-.377-.296-.703-.695-.977-1.195-.276-.5-.413-1.14-.413-1.92 0-.166.023-.444.07-.833.044-.39.187-.797.425-1.224.182-.334.42-.65.714-.945.293-.297.665-.56 1.114-.793.45-.23.976-.417 1.58-.556.606-.14 1.303-.21 2.092-.21.164 0 .435.01.81.03.376.018.798.082 1.265.192.467.11.952.285 1.455.523.502.24.963.58 1.384 1.02.146.147.333.382.562.703.228.322.415.75.562 1.29.055.258.09.485.11.68.017.194.027.338.027.43l-3.783.168c-.02-.036-.046-.17-.083-.403-.038-.23-.11-.45-.22-.653-.15-.24-.4-.468-.76-.68-.36-.214-.85-.32-1.475-.32-1.306 0-1.958.4-1.958 1.197 0 .057.01.145.027.266.018.12.082.228.192.32.11.112.26.21.452.293.192.083.397.157.617.222.22.065.43.12.63.167.2.046.374.08.52.097 1.207.26 2.176.506 2.907.738.73.233 1.334.535 1.81.906.346.28.625.573.835.88.21.306.36.603.452.89.09.29.15.558.177.81.028.25.04.45.04.6 0 .482-.05.91-.15 1.28-.1.373-.223.697-.37.976zM14.91 15.963c0-.278.005-.574.015-.89.01-.315-.01-.62-.055-.918-.045-.296-.132-.574-.26-.834-.126-.258-.326-.48-.598-.666-.11-.074-.264-.157-.464-.25s-.454-.14-.762-.14c-.6.02-1.06.18-1.377.487-.318.307-.532.553-.64.738-.09.186-.164.376-.218.57-.055.195-.092.413-.11.654-.018.24-.03.51-.04.806-.01.297-.014.64-.014 1.03v6.95H6.304V9.096h3.974v1.64c.127-.148.282-.324.464-.528.182-.204.464-.435.847-.695.418-.26.832-.45 1.243-.57.41-.12.86-.18 1.352-.18.182 0 .437.018.765.055.328.037.683.125 1.066.264.383.14.765.348 1.148.626.382.278.728.66 1.04 1.14.235.37.413.756.532 1.154.118.4.2.803.245 1.21.047.408.07.82.07 1.237V23.5h-4.14v-7.537zM0 9.095h4V23.5H0V9.094zM125.886 19.238c1.167 0 2.114.95 2.114 2.122s-.947 2.122-2.114 2.122c-1.168 0-2.115-.95-2.115-2.122s.948-2.122 2.116-2.122zM2.115 0C3.282 0 4.23.95 4.23 2.122S3.28 4.244 2.114 4.244C.947 4.244 0 3.294 0 2.122S.947 0 2.115 0z"/>
</svg>
