<svg xmlns="http://www.w3.org/2000/svg" width="140" height="250" viewBox="0 0 140 250">
  <path id="Фигура_1" data-name="Фигура 1" fill="#333" class="cls-1" d="M478.521,806H361.462A11.467,11.467,0,0,0,350,817.464V1044.53A11.465,11.465,0,0,0,361.462,1056H478.521a11.465,11.465,0,0,0,11.466-11.47V817.464A11.467,11.467,0,0,0,478.521,806Zm-58.53,241.363a12.725,12.725,0,1,1,12.727-12.72A12.72,12.72,0,0,1,419.991,1047.36Zm62.042-37.37a4.186,4.186,0,0,1-4.191,4.19H362.14a4.187,4.187,0,0,1-4.191-4.19V833.825a4.191,4.191,0,0,1,4.191-4.191h115.7a4.191,4.191,0,0,1,4.191,4.191V1009.99ZM406.76,920.882a1.125,1.125,0,0,0-1.282-1.142h-1.9v2.285h1.9A1.125,1.125,0,0,0,406.76,920.882Zm-1.157,2.886h-2.021v2.44H405.6A1.222,1.222,0,1,0,405.6,923.768Zm40.583-2.886a1.125,1.125,0,0,0-1.282-1.142h-1.9v2.285h1.9A1.125,1.125,0,0,0,446.186,920.882Zm-14.722-1.142h-1.825v2.621h1.825A1.314,1.314,0,1,0,431.464,919.74Zm27.285-13.287H381.234a4.649,4.649,0,0,0-4.649,4.649v23.429a4.649,4.649,0,0,0,4.649,4.65h77.515a4.65,4.65,0,0,0,4.649-4.65V911.1A4.65,4.65,0,0,0,458.749,906.453ZM386.825,928.02a4.662,4.662,0,0,1-3.624-1.31l1.254-1.255a3.247,3.247,0,0,0,2.4.837c1.143,0,1.757-.433,1.757-1.227a1.1,1.1,0,0,0-.308-0.836,1.462,1.462,0,0,0-.878-0.349l-1.2-.168a3.369,3.369,0,0,1-1.924-.821,2.625,2.625,0,0,1-.711-1.953c0-1.771,1.31-3.011,3.457-3.011a4.25,4.25,0,0,1,3.206,1.158l-1.226,1.211a2.767,2.767,0,0,0-2.036-.683,1.315,1.315,0,0,0-1.533,1.256,0.958,0.958,0,0,0,.293.71,1.7,1.7,0,0,0,.92.391l1.17,0.167a3.285,3.285,0,0,1,1.9.767,2.778,2.778,0,0,1,.767,2.105C390.506,926.932,388.9,928.02,386.825,928.02Zm12.657-3.485a3.656,3.656,0,0,1-7.3,0V918.01h1.938v6.456a1.724,1.724,0,1,0,3.443,0V918.01h1.923v6.525Zm6.317,3.4h-4.154V918.01h3.986c1.938,0,3.067,1.088,3.067,2.788a2.418,2.418,0,0,0,.14,4.281A2.744,2.744,0,0,1,405.8,927.936Zm7.751,0.084a4.662,4.662,0,0,1-3.624-1.31l1.254-1.255a3.247,3.247,0,0,0,2.4.837c1.143,0,1.757-.433,1.757-1.227a1.1,1.1,0,0,0-.308-0.836,1.462,1.462,0,0,0-.878-0.349l-1.2-.168a3.369,3.369,0,0,1-1.924-.821,2.625,2.625,0,0,1-.711-1.953c0-1.771,1.31-3.011,3.457-3.011a4.249,4.249,0,0,1,3.206,1.158l-1.226,1.211a2.765,2.765,0,0,0-2.036-.683,1.315,1.315,0,0,0-1.533,1.256,0.958,0.958,0,0,0,.293.71,1.7,1.7,0,0,0,.92.391l1.171,0.167a3.284,3.284,0,0,1,1.9.767,2.778,2.778,0,0,1,.767,2.105C417.231,926.932,415.627,928.02,413.55,928.02Zm7.6-2.244a1.535,1.535,0,0,0,1.241.516,1.636,1.636,0,0,0,1.673-1.408h1.965a3.5,3.5,0,0,1-3.652,3.136,3.637,3.637,0,0,1-2.677-1.088,2.875,2.875,0,0,1-.808-1.491,18.32,18.32,0,0,1,0-4.936,2.833,2.833,0,0,1,.808-1.491,3.644,3.644,0,0,1,2.677-1.087,3.5,3.5,0,0,1,3.652,3.136h-1.965a1.636,1.636,0,0,0-1.673-1.407,1.531,1.531,0,0,0-1.241.515c-0.4.433-.487,0.879-0.487,2.8S420.745,925.344,421.148,925.776Zm11.822,2.16-1.937-3.959h-1.394v3.959H427.7V918.01h3.89a3,3,0,0,1,3.22,3.04A2.671,2.671,0,0,1,433,923.656l2.217,4.28H432.97Zm5.786,0h-1.937V918.01h1.937v9.926Zm6.469,0H441.07V918.01h3.987c1.937,0,3.067,1.088,3.067,2.788a2.417,2.417,0,0,0,.14,4.281A2.744,2.744,0,0,1,445.225,927.936Zm11.557-8.2h-4.6v2.327H456.1V923.8h-3.918v2.412h4.6v1.728h-6.538V918.01h6.538v1.73Zm-11.753,4.028h-2.021v2.44h2.021A1.222,1.222,0,1,0,445.029,923.768Z" transform="translate(-350 -806)"/>
</svg>