<svg xmlns="http://www.w3.org/2000/svg" viewBox="0 0 140 250">
  <path fill="#333" d="M128.521 250.001H11.462c-6.333 0-11.467-5.134-11.467-11.467V11.463C-.005 5.13 5.129-.004 11.462-.004h117.059c6.332 0 11.466 5.134 11.466 11.467v227.071c0 6.333-5.134 11.467-11.466 11.467zm-58.53-8.637c7.029 0 12.727-5.698 12.727-12.727S77.02 215.91 69.991 215.91s-12.726 5.698-12.726 12.727 5.697 12.727 12.726 12.727zm62.042-217.731H7.95v184.549h124.083V23.633zM21.196 165.832h97.59c1.597 0 3.039.654 4.08 1.705h.227v.276c.883 1.01 1.435 2.315 1.435 3.762v21.243c0 3.171-2.57 5.742-5.742 5.742h-97.59c-3.171 0-5.742-2.571-5.742-5.742v-21.243c0-3.172 2.571-5.743 5.742-5.743zm94.266 19.78h2.801c.807 0 1.537-.23 2.05-.742.872-.872.784-2.006.784-3.172 0-1.167.088-2.236-.784-3.109-.513-.511-1.243-.74-2.05-.74h-2.801v7.763zm-7.484 0h1.516v-4.765l3.073 4.765h1.353v-7.763h-1.516v4.753l-3.074-4.753h-1.352v7.763zm-6.326 0h5.112v-1.352h-3.597v-1.886h3.063v-1.353h-3.063v-1.82h3.597v-1.352h-5.112v7.763zm-4.039.065c1.625 0 2.879-.85 2.879-2.355 0-.687-.185-1.254-.599-1.646-.328-.306-.775-.502-1.483-.6l-.917-.131c-.315-.044-.567-.164-.719-.305-.163-.153-.229-.359-.229-.556 0-.534.393-.982 1.2-.982.511 0 1.101.065 1.591.534l.959-.948c-.664-.643-1.438-.904-2.507-.904-1.68 0-2.703.969-2.703 2.354 0 .654.185 1.156.555 1.526.349.339.84.546 1.504.644l.938.131c.361.055.535.131.687.272.164.153.24.382.24.655 0 .621-.48.959-1.373.959-.721 0-1.385-.164-1.876-.654l-.98.982c.762.773 1.656 1.024 2.833 1.024zm-79.432 7.141c0 1.662 1.353 3.015 3.015 3.015h70.041v-27.274H21.196c-1.662 0-3.015 1.353-3.015 3.016v21.243zm101.401-11.12c0 1.177-.043 1.733-.326 2.082-.263.316-.612.48-1.135.48h-1.144v-5.059h1.144c.523 0 .872.163 1.135.479.283.349.326.84.326 2.018zm-2.481-96.102h-7.385l-.056 10.832c-.006 1.143-.935 1.859-1.884 1.859-.552 0-1.11-.242-1.497-.783l-8.518-11.908H38.518c-4.278 0-7.746-3.468-7.746-7.746V46.977c0-4.278 3.468-7.746 7.746-7.746h78.583c4.278 0 7.746 3.468 7.746 7.746V77.85c0 4.278-3.468 7.746-7.746 7.746zm5.018-38.619c0-2.768-2.251-5.019-5.018-5.019H38.518c-2.768 0-5.019 2.251-5.019 5.019V77.85c0 2.767 2.251 5.019 5.019 5.019h60.645l.816 1.14 6.968 9.741.042-8.168.014-2.713h10.098c2.767 0 5.018-2.252 5.018-5.019V46.977zM95.88 66.543l-2.008-1.299.102 2.395h-2.272l.101-2.395-2.008 1.299-1.136-1.967 2.131-1.096-2.131-1.096 1.136-1.967 2.008 1.298-.101-2.394h2.272l-.102 2.394 2.008-1.298 1.138 1.967-2.131 1.096 2.131 1.096-1.138 1.967zm-10.262 0l-2.008-1.299.101 2.395h-2.272l.101-2.395-2.008 1.299-1.135-1.967 2.13-1.096-2.13-1.096 1.135-1.967 2.008 1.298-.101-2.394h2.272l-.101 2.394 2.008-1.298 1.137 1.967-2.131 1.096 2.131 1.096-1.137 1.967zm-10.264 0l-2.008-1.299.101 2.395h-2.272l.102-2.395-2.008 1.299-1.136-1.967 2.13-1.096-2.13-1.096 1.136-1.967 2.008 1.298-.102-2.394h2.272l-.101 2.394 2.008-1.298 1.137 1.967-2.13 1.096 2.13 1.096-1.137 1.967zm-10.263 0l-2.008-1.299.102 2.395h-2.272l.101-2.395-2.008 1.299-1.136-1.967 2.131-1.096-2.131-1.096 1.136-1.967 2.008 1.298-.101-2.394h2.272l-.102 2.394 2.008-1.298 1.137 1.967-2.13 1.096 2.13 1.096-1.137 1.967zM30.958 91.548c.01-1.809 2.329-2.546 3.381-1.075l8.519 11.907h59.243c4.278 0 7.745 3.468 7.745 7.746v30.873c0 4.278-3.467 7.747-7.745 7.747H23.518c-4.278 0-7.746-3.469-7.746-7.747v-30.873c0-4.278 3.468-7.746 7.746-7.746h7.385l.055-10.832zm17.409 23.779c.576 0 1.24.073 1.792.602l1.08-1.068c-.748-.725-1.621-1.019-2.823-1.019-1.891 0-3.045 1.092-3.045 2.652 0 .736.209 1.301.626 1.719.392.379.945.614 1.695.723l1.054.148c.406.061.602.147.774.307.185.172.27.429.27.737 0 .699-.54 1.08-1.547 1.08-.81 0-1.558-.184-2.111-.737l-1.105 1.106c.859.871 1.866 1.153 3.192 1.153 1.83 0 3.241-.958 3.241-2.652 0-.773-.209-1.411-.675-1.853-.369-.344-.872-.565-1.67-.675l-1.03-.148c-.357-.05-.64-.184-.811-.344-.184-.172-.257-.405-.257-.626 0-.602.44-1.105 1.35-1.105zm6.233.491c.258-.307.626-.454 1.092-.454.823 0 1.289.492 1.474 1.24h1.731c-.296-1.78-1.535-2.762-3.217-2.762-.932 0-1.718.318-2.357.957-.381.381-.614.81-.711 1.314-.099.491-.148 1.215-.148 2.173s.049 1.682.148 2.173c.097.49.33.933.711 1.313.639.638 1.425.958 2.357.958 1.67 0 2.921-.982 3.217-2.762h-1.731c-.185.748-.651 1.24-1.474 1.24-.466 0-.834-.148-1.092-.454-.356-.381-.43-.774-.43-2.468s.074-2.087.43-2.468zm14.886-1.903h-1.707v8.742h1.707v-8.742zm26.862 8.742h1.707v-5.366l3.461 5.366h1.522v-8.742h-1.706v5.352l-3.462-5.352h-1.522v8.742zm-7.032-.885c.614.614 1.376.958 2.369.958.995 0 1.744-.344 2.357-.958.884-.884.872-1.976.872-3.486 0-1.51.012-2.602-.872-3.487-.613-.613-1.362-.957-2.357-.957-.993 0-1.755.344-2.369.957-.884.885-.859 1.977-.859 3.487s-.025 2.602.859 3.486zm-4 .885h1.707v-8.742h-1.707v8.742zm-1.079-7.219v-1.523h-6.271v1.523h2.282v7.219h1.707v-7.219h2.282zm-9.438 21.946h3.154c.91 0 1.732-.258 2.31-.835.981-.983.882-2.259.882-3.573 0-1.313.099-2.517-.882-3.498-.578-.577-1.4-.835-2.31-.835h-3.154v8.741zm2.688-20.743c0-1.486-1.08-2.726-2.884-2.726h-3.389v8.742h1.708v-3.291h1.681c1.804 0 2.884-1.24 2.884-2.725zm-9.805 20.743h5.757v-1.522h-4.05v-2.124h3.449v-1.522h-3.449v-2.051h4.05v-1.522h-5.757v8.741zm-1.361-20.792c0-1.461-1.056-2.677-2.837-2.677H60.06v8.742h1.707v-3.487h1.226l1.707 3.487h1.976l-1.952-3.769c.847-.308 1.597-1.068 1.597-2.296zm-3.707 20.792h1.707v-7.219h2.282v-1.522h-6.272v1.522h2.283v7.219zm-7.597 0l.527-1.548h3.107l.515 1.548h1.779l-3.19-8.741h-1.339l-3.179 8.741h1.78zm-5.313 0h1.277l2.896-8.741h-1.779l-1.756 5.697-1.755-5.697H46.82l2.884 8.741zm-5.34 0h1.707v-8.741h-1.707v8.741zm.015-17.244c0-1.167-.675-1.72-1.203-1.965.441-.209 1.08-.834 1.08-1.804 0-1.498-.995-2.456-2.7-2.456h-3.512v8.742h3.658c1.559 0 2.677-.885 2.677-2.517zm-7.365 10.025h2.282v7.219h1.707v-7.219h2.283v-1.522h-6.272v1.522zm-6.553 5.022c.097.49.33.932.711 1.313.639.638 1.425.957 2.357.957 1.67 0 2.921-.981 3.217-2.762h-1.731c-.185.749-.651 1.24-1.474 1.24-.466 0-.834-.148-1.092-.454-.356-.381-.43-.774-.43-2.468s.074-2.086.43-2.467c.258-.308.626-.454 1.092-.454.823 0 1.289.491 1.474 1.239h1.731c-.296-1.78-1.535-2.762-3.217-2.762-.932 0-1.718.319-2.357.958-.381.381-.614.81-.711 1.313-.099.491-.148 1.216-.148 2.173 0 .958.049 1.682.148 2.174zm-4.699-19.86c.576 0 1.239.073 1.792.602l1.08-1.068c-.748-.725-1.621-1.019-2.823-1.019-1.891 0-3.045 1.092-3.045 2.652 0 .736.209 1.301.626 1.719.392.379.945.614 1.695.723l1.054.148c.406.061.602.147.774.307.185.172.27.429.27.737 0 .699-.54 1.08-1.547 1.08-.81 0-1.558-.184-2.111-.737l-1.105 1.106c.859.871 1.866 1.153 3.192 1.153 1.829 0 3.241-.958 3.241-2.652 0-.773-.209-1.411-.675-1.853-.369-.344-.872-.565-1.67-.675l-1.031-.148c-.356-.05-.639-.184-.81-.344-.184-.172-.258-.405-.258-.626 0-.602.441-1.105 1.351-1.105zm1.006 13.316H25.43l-3.18 8.741h1.781l.527-1.548h3.107l.515 1.548h1.779l-3.191-8.741zm3.251-8.983c0 1.854 1.423 3.07 3.216 3.07 1.792 0 3.215-1.216 3.215-3.07v-5.745h-1.693v5.684c0 1.007-.602 1.609-1.522 1.609s-1.51-.602-1.51-1.609v-5.684h-1.706v5.745zm-3.878 11.561l1.068 3.18h-2.172l1.104-3.18zm13.61-10.086v-2.15h1.779c.774 0 1.143.48 1.143 1.068 0 .59-.369 1.082-1.143 1.082h-1.779zm1.669-3.684h-1.669v-2.013h1.669c.724 0 1.129.404 1.129 1.006s-.405 1.007-1.129 1.007zm16.775 16.95h-2.171l1.103-3.18 1.068 3.18zm5.179-16.656h-1.607v-2.307h1.607c.75 0 1.24.479 1.24 1.154 0 .675-.49 1.153-1.24 1.153zm9.548-2.307h1.595c.773 0 1.265.491 1.265 1.203 0 .711-.492 1.191-1.265 1.191h-1.595v-2.394zm6.518 17.538c0 1.326-.05 1.952-.369 2.345-.295.356-.687.541-1.276.541h-1.289v-5.697h1.289c.589 0 .981.184 1.276.541.319.392.369.945.369 2.27zm11.141-17.146c.245-.282.638-.466 1.104-.466.467 0 .848.184 1.093.466.332.369.43.774.43 2.456s-.098 2.087-.43 2.456c-.245.282-.626.466-1.093.466-.466 0-.859-.184-1.104-.466-.331-.369-.418-.774-.418-2.456s.087-2.087.418-2.456z"/>
</svg>
