<svg xmlns="http://www.w3.org/2000/svg" viewBox="0 0 60 60">
  <path d="M30 0C13.4 0 0 13.4 0 30s13.4 30 30 30 30-13.4 30-30S46.6 0 30 0zm11.9 35.9c0 1-.8 1.8-1.8 1.9h-7.7c-1 0-1.8-.8-1.8-1.9V24.2c0-1 .8-1.8 1.8-1.9h.3v9.5c0 2 1.6 3.6 3.6 3.6H42v.5zm4.1-2.8h-8.7c-1.1 0-2.1-1-2.1-2.1V16.9c0-.7-.5-1.2-1.2-1.2H21.4c-.7 0-1.2.6-1.2 1.2v23.2h17.9v3.5c0 2.3-1.8 4.2-4.1 4.2H21.4c-2.3 0-4.2-1.9-4.1-4.2V16.9c0-2.3 1.8-4.2 4.1-4.2H34c1.8 0 3.4 1.2 3.9 3H46c1.1 0 2.1.9 2.1 2.1V31c0 1.1-.9 2.1-2.1 2.1z"/>
  <path d="M26.1 45.4c.9.9 2.4.9 3.3 0 .9-1 .9-2.5 0-3.4-.9-.9-2.4-.9-3.3 0-1 .9-1 2.4 0 3.4-.1-.1 0 0 0 0z"/>
</svg>
