<svg xmlns="http://www.w3.org/2000/svg" viewBox="0 0 1280 1536">
  <path d="M1280 1271c0 72.7-20.8 135-62.5 187s-91.8 78-150.5 78H213c-58.7 0-108.8-26-150.5-78S0 1343.7 0 1271c0-56.7 2.8-110.2 8.5-160.5s16.2-101 31.5-152 34.8-94.7 58.5-131 55-66 94-89S276.3 704 327 704c87.3 85.3 191.7 128 313 128s225.7-42.7 313-128c50.7 0 95.5 11.5 134.5 34.5s70.3 52.7 94 89 43.2 80 58.5 131 25.8 101.7 31.5 152 8.5 103.8 8.5 160.5zm-256-887c0 106-37.5 196.5-112.5 271.5S746 768 640 768s-196.5-37.5-271.5-112.5S256 490 256 384s37.5-196.5 112.5-271.5S534 0 640 0s196.5 37.5 271.5 112.5S1024 278 1024 384z"/>
</svg>
