<svg xmlns="http://www.w3.org/2000/svg" viewBox="0 0 60 60">
  <path d="M36.1 17.9H23.3c-.6 0-1.1.5-1.1 1.1v25c0 .6.5 1.1 1.1 1.1H36c.6 0 1.1-.5 1.1-1.1V19c0-.6-.4-1.1-1-1.1zm-1.3 23.7c0 .5-.4.9-.9.9h-8.5c-.5 0-.9-.4-.9-.9v-2.5c0-.5.4-.9.9-.9H34c.5 0 .9.4.9.9v2.5zm0-7c0 .5-.4.9-.9.9h-8.5c-.5 0-.9-.4-.9-.9v-2.5c0-.5.4-.9.9-.9H34c.5 0 .9.4.9.9v2.5zm0-7c0 .5-.4.9-.9.9h-8.5c-.5 0-.9-.4-.9-.9v-2.5c0-.5.4-.9.9-.9H34c.5 0 .9.4.9.9v2.5z"/>
  <path d="M30 0C13.4 0 0 13.4 0 30s13.4 30 30 30 30-13.4 30-30S46.6 0 30 0zm10 44.1c0 2.2-1.7 4-3.9 4.1H23.3c-2.2-.1-4-1.9-3.9-4.1V19c0-2.2 1.7-4 3.9-4.1h1.3V11c0-.5.4-.9.9-.9H34c.5 0 .9.4.9.9v3.9h1.3c2.2.1 4 1.9 3.9 4.1v25.1z"/>
</svg>
