<svg xmlns="http://www.w3.org/2000/svg" viewBox="0 0 60 60">
  <path d="M18.3 31.9c-1.2 0-2.3.9-2.3 2.1 0 1.2.9 2.3 2.1 2.3 1.2 0 2.3-1 2.3-2.2.1-1.2-.9-2.2-2.1-2.2zm4.1-3.8c-1.2 0-2.3.9-2.3 2.1 0 1.2.9 2.3 2.1 2.3 1.2 0 2.3-1 2.3-2.2 0-1.1-.9-2.1-2.1-2.2zm-8.1 0c-1.2 0-2.3.9-2.3 2.1 0 1.2.9 2.3 2.1 2.3 1.2 0 2.3-1 2.3-2.2.1-1.1-.9-2.1-2.1-2.2zm3.7.9c1.2 0 2.3-.9 2.3-2.1 0-1.2-.9-2.3-2.1-2.3-1.2 0-2.3 1-2.3 2.2-.1 1.1.9 2.1 2.1 2.2zm29.1-.7h-3.5V25h-4.1v3.3H36v4.1h3.5v3.4h4.1v-3.4h3.5z"/>
  <path d="M30 0C13.4 0 0 13.4 0 30s13.4 30 30 30 30-13.4 30-30S46.6 0 30 0zm11.7 40H18.1c-5.2-.1-9.4-4.3-9.4-9.5.1-5.2 4.3-9.4 9.4-9.5h23.6c5.1.2 9.3 4.4 9.3 9.5s-4.1 9.3-9.3 9.5z"/>
</svg>
