<svg xmlns="http://www.w3.org/2000/svg" viewBox="0 0 60 60">
  <path d="M30 0C13.4 0 0 13.4 0 30s13.4 30 30 30 30-13.4 30-30S46.6 0 30 0zm-.6 41.6c-1.4 0-2.8-.2-4.2-.4l-7.8 6.5c-.4.3-.9.3-1.3.1-.5-.3-.7-1-.4-1.5l3.9-7.1c-4.7-2.7-7.8-7.2-7.8-12.4 0-8.2 7.9-14.9 17.6-14.9S47 18.4 47 26.7s-7.9 14.9-17.6 14.9z"/>
  <path d="M36.8 24.5c-1.2 0-2.2 1-2.1 2.2 0 2.2-1.4 4.2-3.4 5-2.8 1.1-5.9-.3-7-3.1-1.1-2.8.3-5.9 3.1-7V23c0 2.1 1.5 2.1 2.5 1.3l4.6-3.7c.1-.1.2-.1.2-.2.6-.7.5-1.8-.2-2.4l-4.6-3.6c-1-.8-2.3-.6-2.4 1.2v1.5c-4.5.9-7.8 4.9-7.8 9.5 0 5.4 4.3 9.8 9.8 9.8 5.4 0 9.7-4.4 9.7-9.8v-.1c-.2-1.1-1.2-2.1-2.4-2z"/>
</svg>
