<svg xmlns="http://www.w3.org/2000/svg" viewBox="0 0 140 250">
  <path fill="#333" d="M128.5 0h-117C5.1 0 0 5.1 0 11.5v227.1c0 6.3 5.1 11.5 11.5 11.5h117.1c6.3 0 11.5-5.1 11.5-11.5V11.5C140 5.1 134.9 0 128.5 0zM70 241.4c-7 0-12.7-5.7-12.7-12.7 0-7 5.7-12.7 12.7-12.7s12.7 5.7 12.7 12.7c0 7-5.7 12.7-12.7 12.7zm62-37.4c0 2.3-1.9 4.2-4.2 4.2H12.1c-2.3 0-4.2-1.9-4.2-4.2V27.8c0-2.3 1.9-4.2 4.2-4.2h115.7c2.3 0 4.2 1.9 4.2 4.2V204zm-64.4-63.2h-2v2.4h2c.6.3 1.4 0 1.8-.6s.2-1.3-.4-1.7c-.4-.1-.9-.1-1.4-.1zm1.2-2.8c0-.6-.5-1.1-1.1-1.2h-2.1v2.3h1.9c.6.1 1.2-.3 1.3-1v-.1zm39.3-14.4H31.9c-2.9 0-5.3 2.4-5.3 5.3V151c0 2.9 2.4 5.3 5.3 5.3h76.2c2.9 0 5.3-2.4 5.3-5.3v-22c0-3-2.4-5.4-5.3-5.4zm-59.3 21.5c-1.3.1-2.7-.4-3.6-1.3l1.3-1.3c.7.6 1.5.9 2.4.8 1.1 0 1.8-.4 1.8-1.2 0-.3-.1-.6-.3-.8-.2-.2-.6-.3-.9-.3l-1.2-.2c-.7-.1-1.4-.4-1.9-.8-.5-.5-.8-1.2-.7-2 0-1.8 1.3-3 3.5-3 1.2-.1 2.3.3 3.2 1.2l-1.2 1.2c-.6-.5-1.3-.7-2-.7-.7-.1-1.4.4-1.5 1.1v.2c0 .3.1.5.3.7.3.2.6.4.9.4l1.2.2c.7 0 1.4.3 1.9.8.5.6.8 1.3.8 2.1-.3 1.8-1.9 2.9-4 2.9zm12.7-3.5c-.1 2-1.8 3.6-3.9 3.4-1.9-.1-3.3-1.6-3.4-3.4v-6.5h1.9v6.5c-.1 1 .7 1.8 1.6 1.8 1 .1 1.8-.7 1.8-1.6v-6.7h1.9l.1 6.5zm6.3 3.4h-4.2v-9.9h4c1.9 0 3.1 1.1 3.1 2.8-1.2.7-1.6 2.1-.9 3.3.2.4.6.8 1.1 1 .1 1.5-1.1 2.8-2.6 2.9-.2-.1-.3-.1-.5-.1zm14 0h-1.9v-5.8L78 143h-1.3l-1.9-3.8v5.8h-1.9v-9.9h1.9l2.6 5.4 2.6-5.4h1.9l-.1 9.9zm4.3 0h-1.9v-9.9h1.9v9.9zm8.7-8.2h-2.6v8.2h-1.9v-8.2h-2.6v-1.7h7.1v1.7zm13.3-51.4c1.4 0 2.6 1.2 2.6 2.6v22.1c0 1.4-1.2 2.6-2.6 2.6H31.9c-1.4 0-2.6-1.2-2.6-2.6v-22c0-1.4 1.2-2.6 2.6-2.6l76.2-.1m0-2.7H31.9c-2.9 0-5.3 2.4-5.3 5.3v22.1c0 2.9 2.4 5.3 5.3 5.3h76.2c2.9 0 5.3-2.4 5.3-5.3v-22c0-3-2.4-5.4-5.3-5.4zm-58-7.2l-3.2-5v5h-2.4v-9.9h2.1l3.2 5v-5h2.4v9.9h-2.1zm8.4-7.8v7.8h-2.4v-7.8h-2.4v-2.2H61v2.2h-2.5zm3.9 7.8v-9.9h6.7v2.2h-4.3v1.7h3.7v2.2h-3.7v1.7h4.3v2.2l-6.7-.1zm13.5 0l-1.8-3.7h-.8v3.7h-2.4v-9.9h3.9c1.7-.1 3.3 1.2 3.4 3v.2c0 1.1-.6 2.1-1.6 2.6l2.1 4.1h-2.8zm-1.2-7.8h-1.4v2h1.4c.6 0 1-.4 1.1-.9 0-.6-.4-1-.9-1.1h-.2zM87 71.9h-1.5v3.5H83v-9.9h4c1.8-.1 3.3 1.2 3.4 2.9s-1.2 3.3-2.9 3.4c-.2.1-.4.1-.5.1zm-.1-4.2h-1.4v2h1.4c.6 0 1-.4 1.1-.9 0-.6-.4-1-.9-1.1h-.2zm4.9 7.8v-9.9h2.4v9.9h-2.4zm10 0l-3.2-5v5h-2.4v-9.9h2.1l3.2 5v-5h2.4v9.9h-2.1zm-44.2 26.6l-2-1.3.1 2.4h-2.3l.1-2.4-2 1.3-1.1-2 2.1-1.1-2.1-1.1 1.1-2 2 1.3-.1-2.4h2.3l-.1 2.4 2-1.3 1.1 2-2.1 1.1 2.1 1.1-1.1 2zm10.3 0l-2-1.3.1 2.4h-2.3l.1-2.4-2 1.3-1.1-2 2.1-1.1-2.1-1.1 1.1-2 2 1.3-.1-2.4H66l-.1 2.4 2-1.3 1.1 2-2.1 1.1 2.1 1.1-1.1 2zm10.3 0l-2-1.3.1 2.4H74l.1-2.4-2 1.3-1.1-2 2.1-1.1-2.1-1.1 1.1-2 2 1.3-.1-2.4h2.3l-.1 2.4 2-1.3 1.1 2-2.1 1.1 2.1 1.1-1.1 2zm10.2 0l-2-1.3.1 2.4h-2.3l.1-2.4-2 1.3-1.1-2 2.1-1.1-2.1-1.1 1.1-2 2 1.3-.1-2.4h2.3l-.1 2.4 2-1.3 1.1 2-2.1 1.1 2.1 1.1-1.1 2z"/>
  <path fill="#333" d="M35.7 75.5v-10h6.8v2.2h-4.3v1.7h3.7v2.1h-3.7v1.8h4.3v2.2h-6.8z"/>
</svg>
